# xmcd
#
# Track frame offsets:
#	150
#	18767
#	35765
#	49260
#	65342
#	77532
#	89280
#	104605
#	118610
#	133335
#	147797
#	159730
#	173290
#	187365
#	196887
#	211897
#	228477
#	242947
#	251875
#	265455
#
# Disc length: 3699 seconds
#
# Revision: 3
# Processed by: cddbd v1.5.2PL0 Copyright (c) Steve Scherf et al.
# Submitted via: EZCDAudioConverter 3.1.5.1
#
DISCID=250e7114
DTITLE=Compact Disc Club - Τα Τραγούδια Μας CD1
DYEAR=1996
DGENRE=laika
TTITLE0=Μαρινέλλα - Πες Πως Μ' Αντάμωσες
TTITLE1=Αντώνης Καλογιάννης	 - Όμορφή Μου Κατερίνα
TTITLE2=Βίκυ Μοσχολιού	 - Θα Κλείσω Τα Μάτια
TTITLE3=Κώστας Χατζής	 - Θα Πιω Απόψε Το Φεγγάρι
TTITLE4=Δημήτρης Μητροπάνος	 - Να 'χα Τη Δύναμη
TTITLE5=Δούκισσα	 - Που 'ναι Τα Χρόνια
TTITLE6=Γιάννης Πουλόπουλος	 - Να Μ' Αγαπάς
TTITLE7=Δημήτρης Μητροπάνος	 - Άλλος Για Χίο Τράβηξε
TTITLE8=Δούκισσα - Τόλης Βοσκόπουλος	 - Μ' Έμαθες Ν' Αγαπώ
TTITLE9=Μαρινέλλα	 - Αυτά Τα Χέρια
TTITLE10=Βίκυ Μοσχολιού	 - Άσπρα, Κόκκινα, Κίτρινα, Μπλε
TTITLE11=Δούκισσα - 	Άνθρωποι Είμαστε
TTITLE12=Δημήτρης Μητροπάνος	 - Αν Μ' Αγαπάς
TTITLE13=Πετρή Σαλπέα - Αντώνης Καλογιάννης	 - Κράτα Το Φιλί
TTITLE14=Τάνια Τσανακλίδου	 - Τα Σάββατα
TTITLE15=Χριστιάνα - 	Τελειώσαμε Λοιπόν
TTITLE16=Κώστας Χατζής - Σούλα Μαρκίζη*	 - Χάσαμε
TTITLE17=Μαρινέλλα	 - Κι Ύστερα
TTITLE18=Τόλης Βοσκόπουλος	 - Η Βαλίτσα
TTITLE19=Δημήτρης Μητροπάνος	 - Γειτονάκι Μου
EXTD=
EXTT0=
EXTT1=
EXTT2=
EXTT3=
EXTT4=
EXTT5=
EXTT6=
EXTT7=
EXTT8=
EXTT9=
EXTT10=
EXTT11=
EXTT12=
EXTT13=
EXTT14=
EXTT15=
EXTT16=
EXTT17=
EXTT18=
EXTT19=
PLAYORDER=
